REM DIRINDEX 1\2\4\18,1\2\4\19,1\2\5\20,1\2\5\21,1\2\6\22,1\2\7\23,1\2\8\24,1\2\8\25,1\2\9\26,1\2\10\27,1\3\11\28,1\3\11\29,1\3\11\30,1\3\11\31,1\3\12\32,1\3\12\33,1\3\12\34,1\3\12\35,1\3\13\36,1\3\13\37,1\3\14\38,1\3\14\39,1\3\15\40,1\3\15\41,1\3\15\42,1\3\16\43,1\3\16\44,1\3\17\45,1\3\17\46
REM DIRNAME folder01,folder02,folder03,folder04,folder05,folder06,folder07,folder08,folder09,folder10,folder11,folder12,folder13,folder14,folder15,folder16,folder17,folder18,folder19,folder20,folder21,folder22,folder23,folder24,folder25,folder26,folder27,folder28,folder29,folder30,folder31,folder32,folder33,folder34,folder35,folder36,folder37,folder38,folder39,folder40,folder41,folder42,folder43,folder44,folder45,folder46
TITLE ""
FILE "04.mp3" MP3
  TRACK 01 AUDIO
    TITLE "0:"
    INDEX 01 00:00:00
  TRACK 02 AUDIO
    TITLE "18:cjc024_0601"
    INDEX 01 00:00:13
  TRACK 03 AUDIO
    TITLE "0:"
    INDEX 01 00:01:22
  TRACK 04 AUDIO
    TITLE "19:cjc024_0602"
    INDEX 01 00:01:54
  TRACK 05 AUDIO
    TITLE "0:"
    INDEX 01 00:03:47
  TRACK 06 AUDIO
    TITLE "18:cjc024_0603"
    INDEX 01 00:04:50
  TRACK 07 AUDIO
    TITLE "0:"
    INDEX 01 00:05:67
  TRACK 08 AUDIO
    TITLE "19:cjc024_0604"
    INDEX 01 00:06:18
  TRACK 09 AUDIO
    TITLE "0:"
    INDEX 01 00:09:22
  TRACK 10 AUDIO
    TITLE "18:cjc024_0605"
    INDEX 01 00:10:25
  TRACK 11 AUDIO
    TITLE "0:"
    INDEX 01 00:11:33
  TRACK 12 AUDIO
    TITLE "19:cjc024_0606"
    INDEX 01 00:11:70
  TRACK 13 AUDIO
    TITLE "0:"
    INDEX 01 00:13:59
  TRACK 14 AUDIO
    TITLE "18:cjc024_0607"
    INDEX 01 00:14:58
  TRACK 15 AUDIO
    TITLE "0:"
    INDEX 01 00:15:54
  TRACK 16 AUDIO
    TITLE "19:cjc024_0608"
    INDEX 01 00:16:04
  TRACK 17 AUDIO
    TITLE "0:"
    INDEX 01 00:17:61
  TRACK 18 AUDIO
    TITLE "18:cjc024_0609"
    INDEX 01 00:18:60
  TRACK 19 AUDIO
    TITLE "0:"
    INDEX 01 00:19:67
  TRACK 20 AUDIO
    TITLE "19:cjc024_0610"
    INDEX 01 00:20:18
  TRACK 21 AUDIO
    TITLE "0:"
    INDEX 01 00:21:66
  TRACK 22 AUDIO
    TITLE "18:cjc024_0611"
    INDEX 01 00:22:66
  TRACK 23 AUDIO
    TITLE "0:"
    INDEX 01 00:24:14
  TRACK 24 AUDIO
    TITLE "19:cjc024_0612"
    INDEX 01 00:24:45
  TRACK 25 AUDIO
    TITLE "0:"
    INDEX 01 00:27:65
  TRACK 26 AUDIO
    TITLE "18:cjc024_0613"
    INDEX 01 00:28:66
  TRACK 27 AUDIO
    TITLE "0:"
    INDEX 01 00:30:10
  TRACK 28 AUDIO
    TITLE "19:cjc024_0614"
    INDEX 01 00:30:36
  TRACK 29 AUDIO
    TITLE "0:"
    INDEX 01 00:32:21
  TRACK 30 AUDIO
    TITLE "18:cjc024_0615"
    INDEX 01 00:33:22
  TRACK 31 AUDIO
    TITLE "0:"
    INDEX 01 00:34:34
  TRACK 32 AUDIO
    TITLE "19:cjc024_0616"
    INDEX 01 00:34:67
  TRACK 33 AUDIO
    TITLE "0:"
    INDEX 01 00:37:32
  TRACK 34 AUDIO
    TITLE "18:cjc024_0617"
    INDEX 01 00:38:33
  TRACK 35 AUDIO
    TITLE "0:"
    INDEX 01 00:39:56
  TRACK 36 AUDIO
    TITLE "19:cjc024_0618"
    INDEX 01 00:40:09
  TRACK 37 AUDIO
    TITLE "0:"
    INDEX 01 00:42:61
  TRACK 38 AUDIO
    TITLE "18:cjc024_0619"
    INDEX 01 00:43:60
  TRACK 39 AUDIO
    TITLE "0:"
    INDEX 01 00:45:08
  TRACK 40 AUDIO
    TITLE "19:cjc024_0620"
    INDEX 01 00:45:33
  TRACK 41 AUDIO
    TITLE "0:"
    INDEX 01 00:48:36
  TRACK 42 AUDIO
    TITLE "18:cjc024_0621"
    INDEX 01 00:49:35
  TRACK 43 AUDIO
    TITLE "0:"
    INDEX 01 00:50:50
  TRACK 44 AUDIO
    TITLE "19:cjc024_0622"
    INDEX 01 00:51:03
  TRACK 45 AUDIO
    TITLE "0:"
    INDEX 01 00:52:51
  TRACK 46 AUDIO
    TITLE "18:cjc024_0623"
    INDEX 01 00:53:49
  TRACK 47 AUDIO
    TITLE "0:"
    INDEX 01 00:55:06
  TRACK 48 AUDIO
    TITLE "19:cjc024_0624"
    INDEX 01 00:55:30
  TRACK 49 AUDIO
    TITLE "0:"
    INDEX 01 00:57:25
  TRACK 50 AUDIO
    TITLE "18:cjc024_0625"
    INDEX 01 00:58:26
  TRACK 51 AUDIO
    TITLE "0:"
    INDEX 01 00:59:22
  TRACK 52 AUDIO
    TITLE "19:cjc024_0626"
    INDEX 01 00:59:49
  TRACK 53 AUDIO
    TITLE "0:"
    INDEX 01 01:01:15
  TRACK 54 AUDIO
    TITLE "18:cjc024_0627"
    INDEX 01 01:02:14
  TRACK 55 AUDIO
    TITLE "0:"
    INDEX 01 01:03:22
  TRACK 56 AUDIO
    TITLE "19:cjc024_0628"
    INDEX 01 01:03:45
  TRACK 57 AUDIO
    TITLE "0:"
    INDEX 01 01:05:24
  TRACK 58 AUDIO
    TITLE "18:cjc024_0629"
    INDEX 01 01:06:26
  TRACK 59 AUDIO
    TITLE "0:"
    INDEX 01 01:07:37
  TRACK 60 AUDIO
    TITLE "19:cjc024_0630"
    INDEX 01 01:07:63
  TRACK 61 AUDIO
    TITLE "0:"
    INDEX 01 01:10:30
  TRACK 62 AUDIO
    TITLE "18:cjc024_0631"
    INDEX 01 01:11:29
  TRACK 63 AUDIO
    TITLE "0:"
    INDEX 01 01:12:42
  TRACK 64 AUDIO
    TITLE "19:cjc024_0632"
    INDEX 01 01:12:70
  TRACK 65 AUDIO
    TITLE "0:"
    INDEX 01 01:14:33
  TRACK 66 AUDIO
    TITLE "18:cjc024_0633"
    INDEX 01 01:15:33
  TRACK 67 AUDIO
    TITLE "0:"
    INDEX 01 01:16:52
  TRACK 68 AUDIO
    TITLE "19:cjc024_0634"
    INDEX 01 01:17:04
  TRACK 69 AUDIO
    TITLE "0:"
    INDEX 01 01:19:07
  TRACK 70 AUDIO
    TITLE "18:cjc024_0635"
    INDEX 01 01:20:08
  TRACK 71 AUDIO
    TITLE "0:"
    INDEX 01 01:21:37
  TRACK 72 AUDIO
    TITLE "19:cjc024_0636"
    INDEX 01 01:21:63
  TRACK 73 AUDIO
    TITLE "0:"
    INDEX 01 01:23:69
  TRACK 74 AUDIO
    TITLE "18:cjc024_0637"
    INDEX 01 01:24:69
  TRACK 75 AUDIO
    TITLE "0:"
    INDEX 01 01:25:72
  TRACK 76 AUDIO
    TITLE "19:cjc024_0638"
    INDEX 01 01:26:23
  TRACK 77 AUDIO
    TITLE "0:"
    INDEX 01 01:28:16
  TRACK 78 AUDIO
    TITLE "18:cjc024_0639"
    INDEX 01 01:29:15
  TRACK 79 AUDIO
    TITLE "0:"
    INDEX 01 01:30:18
  TRACK 80 AUDIO
    TITLE "19:cjc024_0640"
    INDEX 01 01:30:42
  TRACK 81 AUDIO
    TITLE "0:"
    INDEX 01 01:32:57
  TRACK 82 AUDIO
    TITLE "18:cjc024_0641"
    INDEX 01 01:33:52
  TRACK 83 AUDIO
    TITLE "0:"
    INDEX 01 01:35:08
  TRACK 84 AUDIO
    TITLE "19:cjc024_0642"
    INDEX 01 01:35:33
  TRACK 85 AUDIO
    TITLE "0:"
    INDEX 01 01:37:13
  TRACK 86 AUDIO
    TITLE "18:cjc024_0643"
    INDEX 01 01:38:14
  TRACK 87 AUDIO
    TITLE "0:"
    INDEX 01 01:39:17
  TRACK 88 AUDIO
    TITLE "19:cjc024_0644"
    INDEX 01 01:39:47
  TRACK 89 AUDIO
    TITLE "0:"
    INDEX 01 01:41:42
  TRACK 90 AUDIO
    TITLE "18:cjc024_0645"
    INDEX 01 01:42:39
  TRACK 91 AUDIO
    TITLE "0:"
    INDEX 01 01:43:41
  TRACK 92 AUDIO
    TITLE "19:cjc024_0646"
    INDEX 01 01:43:70
  TRACK 93 AUDIO
    TITLE "0:"
    INDEX 01 01:46:47
  TRACK 94 AUDIO
    TITLE "18:cjc024_0647"
    INDEX 01 01:47:48
  TRACK 95 AUDIO
    TITLE "0:"
    INDEX 01 01:48:50
  TRACK 96 AUDIO
    TITLE "19:cjc024_0648"
    INDEX 01 01:49:02
  TRACK 97 AUDIO
    TITLE "0:"
    INDEX 01 01:51:52
  TRACK 98 AUDIO
    TITLE "18:cjc024_0649"
    INDEX 01 01:52:49
  TRACK 99 AUDIO
    TITLE "0:"
    INDEX 01 01:53:51
  TRACK 100 AUDIO
    TITLE "19:cjc024_0650"
    INDEX 01 01:54:03
  TRACK 101 AUDIO
    TITLE "0:"
    INDEX 01 01:56:30
  TRACK 102 AUDIO
    TITLE "18:cjc024_0651"
    INDEX 01 01:57:27
  TRACK 103 AUDIO
    TITLE "0:"
    INDEX 01 01:58:42
  TRACK 104 AUDIO
    TITLE "19:cjc024_0652"
    INDEX 01 01:58:70
  TRACK 105 AUDIO
    TITLE "0:"
    INDEX 01 02:00:72
  TRACK 106 AUDIO
    TITLE "18:cjc024_0653"
    INDEX 01 02:01:70
  TRACK 107 AUDIO
    TITLE "0:"
    INDEX 01 02:02:71
  TRACK 108 AUDIO
    TITLE "19:cjc024_0654"
    INDEX 01 02:03:26
  TRACK 109 AUDIO
    TITLE "0:"
    INDEX 01 02:04:66
  TRACK 110 AUDIO
    TITLE "18:cjc024_0655"
    INDEX 01 02:05:74
  TRACK 111 AUDIO
    TITLE "0:"
    INDEX 01 02:07:06
  TRACK 112 AUDIO
    TITLE "19:cjc024_0656"
    INDEX 01 02:07:33
  TRACK 113 AUDIO
    TITLE "0:"
    INDEX 01 02:09:13
  TRACK 114 AUDIO
    TITLE "18:cjc024_0657"
    INDEX 01 02:10:12
  TRACK 115 AUDIO
    TITLE "0:"
    INDEX 01 02:11:23
  TRACK 116 AUDIO
    TITLE "19:cjc024_0658"
    INDEX 01 02:11:57
  TRACK 117 AUDIO
    TITLE "0:"
    INDEX 01 02:14:47
  TRACK 118 AUDIO
    TITLE "18:cjc024_0659"
    INDEX 01 02:15:51
  TRACK 119 AUDIO
    TITLE "0:"
    INDEX 01 02:16:60
  TRACK 120 AUDIO
    TITLE "19:cjc024_0660"
    INDEX 01 02:17:16
  TRACK 121 AUDIO
    TITLE "0:"
    INDEX 01 02:19:13
  TRACK 122 AUDIO
    TITLE "18:cjc024_0661"
    INDEX 01 02:20:11
  TRACK 123 AUDIO
    TITLE "0:"
    INDEX 01 02:21:18
  TRACK 124 AUDIO
    TITLE "19:cjc024_0662"
    INDEX 01 02:21:43
  TRACK 125 AUDIO
    TITLE "0:"
    INDEX 01 02:24:06
  TRACK 126 AUDIO
    TITLE "18:cjc024_0663"
    INDEX 01 02:25:06
  TRACK 127 AUDIO
    TITLE "0:"
    INDEX 01 02:26:37
  TRACK 128 AUDIO
    TITLE "19:cjc024_0664"
    INDEX 01 02:26:62
  TRACK 129 AUDIO
    TITLE "0:"
    INDEX 01 02:29:02
  TRACK 130 AUDIO
    TITLE "18:cjc024_0665"
    INDEX 01 02:29:72
  TRACK 131 AUDIO
    TITLE "0:"
    INDEX 01 02:31:20
  TRACK 132 AUDIO
    TITLE "19:cjc024_0666"
    INDEX 01 02:31:46
  TRACK 133 AUDIO
    TITLE "0:"
    INDEX 01 02:33:52
  TRACK 134 AUDIO
    TITLE "18:cjc024_0667"
    INDEX 01 02:34:54
  TRACK 135 AUDIO
    TITLE "0:"
    INDEX 01 02:35:49
  TRACK 136 AUDIO
    TITLE "19:cjc024_0668"
    INDEX 01 02:36:00
  TRACK 137 AUDIO
    TITLE "0:"
    INDEX 01 02:37:56
  TRACK 138 AUDIO
    TITLE "18:cjc024_0669"
    INDEX 01 02:38:61
  TRACK 139 AUDIO
    TITLE "0:"
    INDEX 01 02:39:67
  TRACK 140 AUDIO
    TITLE "19:cjc024_0670"
    INDEX 01 02:40:19
  TRACK 141 AUDIO
    TITLE "0:"
    INDEX 01 02:41:60
  TRACK 142 AUDIO
    TITLE "18:cjc024_0671"
    INDEX 01 02:42:61
  TRACK 143 AUDIO
    TITLE "0:"
    INDEX 01 02:43:57
  TRACK 144 AUDIO
    TITLE "19:cjc024_0672"
    INDEX 01 02:44:05
  TRACK 145 AUDIO
    TITLE "0:"
    INDEX 01 02:46:12
  TRACK 146 AUDIO
    TITLE "18:cjc024_0673"
    INDEX 01 02:47:09
  TRACK 147 AUDIO
    TITLE "0:"
    INDEX 01 02:48:01
  TRACK 148 AUDIO
    TITLE "19:cjc024_0674"
    INDEX 01 02:48:28
  TRACK 149 AUDIO
    TITLE "0:"
    INDEX 01 02:50:29
  TRACK 150 AUDIO
    TITLE "18:cjc024_0675"
    INDEX 01 02:51:31
  TRACK 151 AUDIO
    TITLE "0:"
    INDEX 01 02:52:44
  TRACK 152 AUDIO
    TITLE "19:cjc024_0676"
    INDEX 01 02:52:67
  TRACK 153 AUDIO
    TITLE "0:"
    INDEX 01 02:55:48
  TRACK 154 AUDIO
    TITLE "18:cjc024_0677"
    INDEX 01 02:56:48
  TRACK 155 AUDIO
    TITLE "0:"
    INDEX 01 02:57:49
  TRACK 156 AUDIO
    TITLE "19:cjc024_0678"
    INDEX 01 02:57:74
  TRACK 157 AUDIO
    TITLE "0:"
    INDEX 01 02:59:60
  TRACK 158 AUDIO
    TITLE "18:cjc024_0679"
    INDEX 01 03:00:57
  TRACK 159 AUDIO
    TITLE "0:"
    INDEX 01 03:01:60
  TRACK 160 AUDIO
    TITLE "19:cjc024_0680"
    INDEX 01 03:02:11
  TRACK 161 AUDIO
    TITLE "0:"
    INDEX 01 03:04:24
  TRACK 162 AUDIO
    TITLE "18:cjc024_0681"
    INDEX 01 03:05:23
  TRACK 163 AUDIO
    TITLE "0:"
    INDEX 01 03:06:40
  TRACK 164 AUDIO
    TITLE "19:cjc024_0682"
    INDEX 01 03:06:66
  TRACK 165 AUDIO
    TITLE "0:"
    INDEX 01 03:11:18
  TRACK 166 AUDIO
    TITLE "18:cjc024_0683"
    INDEX 01 03:12:17
  TRACK 167 AUDIO
    TITLE "0:"
    INDEX 01 03:13:40
  TRACK 168 AUDIO
    TITLE "19:cjc024_0684"
    INDEX 01 03:13:66
  TRACK 169 AUDIO
    TITLE "0:"
    INDEX 01 03:16:23
  TRACK 170 AUDIO
    TITLE "18:cjc024_0685"
    INDEX 01 03:17:24
  TRACK 171 AUDIO
    TITLE "0:"
    INDEX 01 03:18:26
  TRACK 172 AUDIO
    TITLE "19:cjc024_0686"
    INDEX 01 03:18:51
  TRACK 173 AUDIO
    TITLE "0:"
    INDEX 01 03:20:23
  TRACK 174 AUDIO
    TITLE "18:cjc024_0687"
    INDEX 01 03:21:24
  TRACK 175 AUDIO
    TITLE "0:"
    INDEX 01 03:22:39
  TRACK 176 AUDIO
    TITLE "19:cjc024_0688"
    INDEX 01 03:22:66
  TRACK 177 AUDIO
    TITLE "0:"
    INDEX 01 03:25:12
  TRACK 178 AUDIO
    TITLE "18:cjc024_0689"
    INDEX 01 03:26:23
  TRACK 179 AUDIO
    TITLE "0:"
    INDEX 01 03:27:40
  TRACK 180 AUDIO
    TITLE "19:cjc024_0690"
    INDEX 01 03:27:66
  TRACK 181 AUDIO
    TITLE "0:"
    INDEX 01 03:30:17
  TRACK 182 AUDIO
    TITLE "18:cjc024_0691"
    INDEX 01 03:31:18
  TRACK 183 AUDIO
    TITLE "0:"
    INDEX 01 03:32:30
  TRACK 184 AUDIO
    TITLE "19:cjc024_0692"
    INDEX 01 03:32:53
  TRACK 185 AUDIO
    TITLE "0:"
    INDEX 01 03:34:58
  TRACK 186 AUDIO
    TITLE "18:cjc024_0693"
    INDEX 01 03:35:73
  TRACK 187 AUDIO
    TITLE "0:"
    INDEX 01 03:37:15
  TRACK 188 AUDIO
    TITLE "19:cjc024_0694"
    INDEX 01 03:37:45
  TRACK 189 AUDIO
    TITLE "0:"
    INDEX 01 03:39:14
  TRACK 190 AUDIO
    TITLE "18:cjc024_0695"
    INDEX 01 03:40:17
  TRACK 191 AUDIO
    TITLE "0:"
    INDEX 01 03:41:33
  TRACK 192 AUDIO
    TITLE "19:cjc024_0696"
    INDEX 01 03:41:60
  TRACK 193 AUDIO
    TITLE "0:"
    INDEX 01 03:44:00
  TRACK 194 AUDIO
    TITLE "18:cjc024_0697"
    INDEX 01 03:44:72
  TRACK 195 AUDIO
    TITLE "0:"
    INDEX 01 03:46:10
  TRACK 196 AUDIO
    TITLE "19:cjc024_0698"
    INDEX 01 03:46:36
  TRACK 197 AUDIO
    TITLE "0:"
    INDEX 01 03:49:44
  TRACK 198 AUDIO
    TITLE "18:cjc024_0699"
    INDEX 01 03:50:45
  TRACK 199 AUDIO
    TITLE "0:"
    INDEX 01 03:51:45
  TRACK 200 AUDIO
    TITLE "19:cjc024_0700"
    INDEX 01 03:51:70
  TRACK 201 AUDIO
    TITLE "0:"
    INDEX 01 03:53:69
  TRACK 202 AUDIO
    TITLE "18:cjc024_0701"
    INDEX 01 03:54:70
  TRACK 203 AUDIO
    TITLE "0:"
    INDEX 01 03:56:01
  TRACK 204 AUDIO
    TITLE "19:cjc024_0702"
    INDEX 01 03:56:26
  TRACK 205 AUDIO
    TITLE "0:"
    INDEX 01 03:59:34
  TRACK 206 AUDIO
    TITLE "18:cjc024_0703"
    INDEX 01 04:00:32
  TRACK 207 AUDIO
    TITLE "0:"
    INDEX 01 04:01:35
  TRACK 208 AUDIO
    TITLE "19:cjc024_0704"
    INDEX 01 04:01:61
  TRACK 209 AUDIO
    TITLE "0:"
    INDEX 01 04:04:04
  TRACK 210 AUDIO
    TITLE "18:cjc024_0705"
    INDEX 01 04:05:08
  TRACK 211 AUDIO
    TITLE "0:"
    INDEX 01 04:06:15
  TRACK 212 AUDIO
    TITLE "19:cjc024_0706"
    INDEX 01 04:06:40
  TRACK 213 AUDIO
    TITLE "0:"
    INDEX 01 04:08:49
  TRACK 214 AUDIO
    TITLE "18:cjc024_0707"
    INDEX 01 04:09:48
  TRACK 215 AUDIO
    TITLE "0:"
    INDEX 01 04:10:56
  TRACK 216 AUDIO
    TITLE "19:cjc024_0708"
    INDEX 01 04:11:06
  TRACK 217 AUDIO
    TITLE "0:"
    INDEX 01 04:12:35
  TRACK 218 AUDIO
    TITLE "18:cjc024_0709"
    INDEX 01 04:13:34
  TRACK 219 AUDIO
    TITLE "0:"
    INDEX 01 04:14:38
  TRACK 220 AUDIO
    TITLE "19:cjc024_0710"
    INDEX 01 04:14:63
  TRACK 221 AUDIO
    TITLE "0:"
    INDEX 01 04:17:11
  TRACK 222 AUDIO
    TITLE "18:cjc024_0711"
    INDEX 01 04:18:14
  TRACK 223 AUDIO
    TITLE "0:"
    INDEX 01 04:19:17
  TRACK 224 AUDIO
    TITLE "19:cjc024_0712"
    INDEX 01 04:19:43
  TRACK 225 AUDIO
    TITLE "0:"
    INDEX 01 04:21:34
  TRACK 226 AUDIO
    TITLE "18:cjc024_0713"
    INDEX 01 04:22:35
  TRACK 227 AUDIO
    TITLE "0:"
    INDEX 01 04:23:51
  TRACK 228 AUDIO
    TITLE "19:cjc024_0714"
    INDEX 01 04:24:01
  TRACK 229 AUDIO
    TITLE "0:"
    INDEX 01 04:25:49
  TRACK 230 AUDIO
    TITLE "18:cjc024_0715"
    INDEX 01 04:26:51
  TRACK 231 AUDIO
    TITLE "0:"
    INDEX 01 04:27:56
  TRACK 232 AUDIO
    TITLE "19:cjc024_0716"
    INDEX 01 04:28:05
  TRACK 233 AUDIO
    TITLE "0:"
    INDEX 01 04:30:25
  TRACK 234 AUDIO
    TITLE "18:cjc024_0717"
    INDEX 01 04:31:32
  TRACK 235 AUDIO
    TITLE "0:"
    INDEX 01 04:32:51
  TRACK 236 AUDIO
    TITLE "19:cjc024_0718"
    INDEX 01 04:33:04
  TRACK 237 AUDIO
    TITLE "0:"
    INDEX 01 04:34:46
  TRACK 238 AUDIO
    TITLE "18:cjc024_0719"
    INDEX 01 04:35:48
  TRACK 239 AUDIO
    TITLE "0:"
    INDEX 01 04:36:59
  TRACK 240 AUDIO
    TITLE "19:cjc024_0720"
    INDEX 01 04:37:08
  TRACK 241 AUDIO
    TITLE "0:"
    INDEX 01 04:38:66
  TRACK 242 AUDIO
    TITLE "18:cjc024_0721"
    INDEX 01 04:39:65
  TRACK 243 AUDIO
    TITLE "0:"
    INDEX 01 04:40:69
  TRACK 244 AUDIO
    TITLE "19:cjc024_0722"
    INDEX 01 04:41:19
  TRACK 245 AUDIO
    TITLE "0:"
    INDEX 01 04:43:06
  TRACK 246 AUDIO
    TITLE "18:cjc024_0723"
    INDEX 01 04:44:12
  TRACK 247 AUDIO
    TITLE "0:"
    INDEX 01 04:45:25
  TRACK 248 AUDIO
    TITLE "19:cjc024_0724"
    INDEX 01 04:45:48
  TRACK 249 AUDIO
    TITLE "0:"
    INDEX 01 04:48:25
  TRACK 250 AUDIO
    TITLE "18:cjc024_0725"
    INDEX 01 04:49:24
  TRACK 251 AUDIO
    TITLE "0:"
    INDEX 01 04:50:22
  TRACK 252 AUDIO
    TITLE "19:cjc024_0726"
    INDEX 01 04:50:47
  TRACK 253 AUDIO
    TITLE "0:"
    INDEX 01 04:52:23
  TRACK 254 AUDIO
    TITLE "18:cjc024_0727"
    INDEX 01 04:53:20
  TRACK 255 AUDIO
    TITLE "0:"
    INDEX 01 04:54:22
  TRACK 256 AUDIO
    TITLE "19:cjc024_0728"
    INDEX 01 04:54:65
  TRACK 257 AUDIO
    TITLE "0:"
    INDEX 01 04:56:28
  TRACK 258 AUDIO
    TITLE "18:cjc024_0729"
    INDEX 01 04:57:28
  TRACK 259 AUDIO
    TITLE "0:"
    INDEX 01 04:58:39
  TRACK 260 AUDIO
    TITLE "19:cjc024_0730"
    INDEX 01 04:58:63
  TRACK 261 AUDIO
    TITLE "0:"
    INDEX 01 05:00:71
  TRACK 262 AUDIO
    TITLE "18:cjc024_0731"
    INDEX 01 05:01:71
  TRACK 263 AUDIO
    TITLE "0:"
    INDEX 01 05:03:01
  TRACK 264 AUDIO
    TITLE "19:cjc024_0732"
    INDEX 01 05:03:27
  TRACK 265 AUDIO
    TITLE "0:"
    INDEX 01 05:06:13
  TRACK 266 AUDIO
    TITLE "18:cjc024_0733"
    INDEX 01 05:07:15
  TRACK 267 AUDIO
    TITLE "0:"
    INDEX 01 05:08:22
  TRACK 268 AUDIO
    TITLE "19:cjc024_0734"
    INDEX 01 05:08:55
  TRACK 269 AUDIO
    TITLE "0:"
    INDEX 01 05:10:32
  TRACK 270 AUDIO
    TITLE "18:cjc024_0735"
    INDEX 01 05:11:34
  TRACK 271 AUDIO
    TITLE "0:"
    INDEX 01 05:12:61
  TRACK 272 AUDIO
    TITLE "19:cjc024_0736"
    INDEX 01 05:13:09
  TRACK 273 AUDIO
    TITLE "0:"
    INDEX 01 05:15:02
  TRACK 274 AUDIO
    TITLE "18:cjc024_0737"
    INDEX 01 05:16:12
  TRACK 275 AUDIO
    TITLE "0:"
    INDEX 01 05:17:13
  TRACK 276 AUDIO
    TITLE "19:cjc024_0738"
    INDEX 01 05:17:38
  TRACK 277 AUDIO
    TITLE "0:"
    INDEX 01 05:19:14
  TRACK 278 AUDIO
    TITLE "18:cjc024_0739"
    INDEX 01 05:20:13
  TRACK 279 AUDIO
    TITLE "0:"
    INDEX 01 05:21:20
  TRACK 280 AUDIO
    TITLE "19:cjc024_0740"
    INDEX 01 05:21:54
  TRACK 281 AUDIO
    TITLE "0:"
    INDEX 01 05:24:03
  TRACK 282 AUDIO
    TITLE "18:cjc024_0741"
    INDEX 01 05:25:03
  TRACK 283 AUDIO
    TITLE "0:"
    INDEX 01 05:26:14
  TRACK 284 AUDIO
    TITLE "19:cjc024_0742"
    INDEX 01 05:26:37
  TRACK 285 AUDIO
    TITLE "0:"
    INDEX 01 05:28:60
  TRACK 286 AUDIO
    TITLE "18:cjc024_0743"
    INDEX 01 05:29:63
  TRACK 287 AUDIO
    TITLE "0:"
    INDEX 01 05:31:03
  TRACK 288 AUDIO
    TITLE "19:cjc024_0744"
    INDEX 01 05:31:27
  TRACK 289 AUDIO
    TITLE "0:"
    INDEX 01 05:33:39
  TRACK 290 AUDIO
    TITLE "18:cjc024_0745"
    INDEX 01 05:34:41
  TRACK 291 AUDIO
    TITLE "0:"
    INDEX 01 05:35:46
  TRACK 292 AUDIO
    TITLE "19:cjc024_0746"
    INDEX 01 05:35:70
  TRACK 293 AUDIO
    TITLE "0:"
    INDEX 01 05:39:05
  TRACK 294 AUDIO
    TITLE "18:cjc024_0747"
    INDEX 01 05:40:04
  TRACK 295 AUDIO
    TITLE "0:"
    INDEX 01 05:41:06
  TRACK 296 AUDIO
    TITLE "19:cjc024_0748"
    INDEX 01 05:41:33
  TRACK 297 AUDIO
    TITLE "0:"
    INDEX 01 05:44:14
  TRACK 298 AUDIO
    TITLE "18:cjc024_0749"
    INDEX 01 05:45:13
  TRACK 299 AUDIO
    TITLE "0:"
    INDEX 01 05:46:32
  TRACK 300 AUDIO
    TITLE "19:cjc024_0750"
    INDEX 01 05:46:56
  TRACK 301 AUDIO
    TITLE "0:"
    INDEX 01 05:48:31
  TRACK 302 AUDIO
    TITLE "18:cjc024_0751"
    INDEX 01 05:49:33
  TRACK 303 AUDIO
    TITLE "0:"
    INDEX 01 05:50:42
  TRACK 304 AUDIO
    TITLE "19:cjc024_0752"
    INDEX 01 05:50:71
  TRACK 305 AUDIO
    TITLE "0:"
    INDEX 01 05:52:62
  TRACK 306 AUDIO
    TITLE "18:cjc024_0753"
    INDEX 01 05:53:64
  TRACK 307 AUDIO
    TITLE "0:"
    INDEX 01 05:54:67
  TRACK 308 AUDIO
    TITLE "19:cjc024_0754"
    INDEX 01 05:55:17
  TRACK 309 AUDIO
    TITLE "0:"
    INDEX 01 05:57:52
  TRACK 310 AUDIO
    TITLE "18:cjc024_0755"
    INDEX 01 05:58:51
  TRACK 311 AUDIO
    TITLE "0:"
    INDEX 01 05:59:68
  TRACK 312 AUDIO
    TITLE "19:cjc024_0756"
    INDEX 01 06:00:19
  TRACK 313 AUDIO
    TITLE "0:"
    INDEX 01 06:02:41
  TRACK 314 AUDIO
    TITLE "18:cjc024_0757"
    INDEX 01 06:03:42
  TRACK 315 AUDIO
    TITLE "0:"
    INDEX 01 06:04:61
  TRACK 316 AUDIO
    TITLE "19:cjc024_0758"
    INDEX 01 06:05:10
  TRACK 317 AUDIO
    TITLE "0:"
    INDEX 01 06:07:01
  TRACK 318 AUDIO
    TITLE "18:cjc024_0759"
    INDEX 01 06:08:00
  TRACK 319 AUDIO
    TITLE "0:"
    INDEX 01 06:09:06
  TRACK 320 AUDIO
    TITLE "19:cjc024_0760"
    INDEX 01 06:09:31
  TRACK 321 AUDIO
    TITLE "0:"
    INDEX 01 06:10:68
  TRACK 322 AUDIO
    TITLE "18:cjc024_0761"
    INDEX 01 06:11:69
  TRACK 323 AUDIO
    TITLE "0:"
    INDEX 01 06:13:09
  TRACK 324 AUDIO
    TITLE "19:cjc024_0762"
    INDEX 01 06:13:35
  TRACK 325 AUDIO
    TITLE "0:"
    INDEX 01 06:15:42
  TRACK 326 AUDIO
    TITLE "18:cjc024_0763"
    INDEX 01 06:16:49
  TRACK 327 AUDIO
    TITLE "0:"
    INDEX 01 06:17:52
  TRACK 328 AUDIO
    TITLE "19:cjc024_0764"
    INDEX 01 06:18:03
  TRACK 329 AUDIO
    TITLE "0:"
    INDEX 01 06:20:72
  TRACK 330 AUDIO
    TITLE "18:cjc024_0765"
    INDEX 01 06:21:70
  TRACK 331 AUDIO
    TITLE "0:"
    INDEX 01 06:23:00
  TRACK 332 AUDIO
    TITLE "19:cjc024_0766"
    INDEX 01 06:23:27
  TRACK 333 AUDIO
    TITLE "0:"
    INDEX 01 06:25:60
  TRACK 334 AUDIO
    TITLE "18:cjc024_0767"
    INDEX 01 06:26:63
  TRACK 335 AUDIO
    TITLE "0:"
    INDEX 01 06:27:66
  TRACK 336 AUDIO
    TITLE "19:cjc024_0768"
    INDEX 01 06:28:17
  TRACK 337 AUDIO
    TITLE "0:"
    INDEX 01 06:31:07
  TRACK 338 AUDIO
    TITLE "18:cjc024_0769"
    INDEX 01 06:32:07
  TRACK 339 AUDIO
    TITLE "0:"
    INDEX 01 06:33:18
  TRACK 340 AUDIO
    TITLE "19:cjc024_0770"
    INDEX 01 06:33:47
  TRACK 341 AUDIO
    TITLE "0:"
    INDEX 01 06:36:11
  TRACK 342 AUDIO
    TITLE "18:cjc024_0771"
    INDEX 01 06:37:32
  TRACK 343 AUDIO
    TITLE "0:"
    INDEX 01 06:38:27
  TRACK 344 AUDIO
    TITLE "19:cjc024_0772"
    INDEX 01 06:38:56
  TRACK 345 AUDIO
    TITLE "0:"
    INDEX 01 06:41:27
  TRACK 346 AUDIO
    TITLE "18:cjc024_0773"
    INDEX 01 06:42:33
  TRACK 347 AUDIO
    TITLE "0:"
    INDEX 01 06:43:36
  TRACK 348 AUDIO
    TITLE "19:cjc024_0774"
    INDEX 01 06:43:65
  TRACK 349 AUDIO
    TITLE "0:"
    INDEX 01 06:45:17
  TRACK 350 AUDIO
    TITLE "18:cjc024_0775"
    INDEX 01 06:46:25
  TRACK 351 AUDIO
    TITLE "0:"
    INDEX 01 06:47:28
  TRACK 352 AUDIO
    TITLE "19:cjc024_0776"
    INDEX 01 06:47:69
  TRACK 353 AUDIO
    TITLE "0:"
    INDEX 01 06:49:21
  TRACK 354 AUDIO
    TITLE "18:cjc024_0777"
    INDEX 01 06:50:26
  TRACK 355 AUDIO
    TITLE "0:"
    INDEX 01 06:51:53
  TRACK 356 AUDIO
    TITLE "19:cjc024_0778"
    INDEX 01 06:52:04
  TRACK 357 AUDIO
    TITLE "0:"
    INDEX 01 06:54:28
  TRACK 358 AUDIO
    TITLE "18:cjc024_0779"
    INDEX 01 06:55:29
  TRACK 359 AUDIO
    TITLE "0:"
    INDEX 01 06:56:50
  TRACK 360 AUDIO
    TITLE "19:cjc024_0780"
    INDEX 01 06:56:74
  TRACK 361 AUDIO
    TITLE "0:"
    INDEX 01 06:58:67
  TRACK 362 AUDIO
    TITLE "18:cjc024_0781"
    INDEX 01 06:59:68
  TRACK 363 AUDIO
    TITLE "0:"
    INDEX 01 07:01:05
  TRACK 364 AUDIO
    TITLE "19:cjc024_0782"
    INDEX 01 07:01:30
  TRACK 365 AUDIO
    TITLE "0:"
    INDEX 01 07:03:51
  TRACK 366 AUDIO
    TITLE "18:cjc024_0783"
    INDEX 01 07:04:48
  TRACK 367 AUDIO
    TITLE "0:"
    INDEX 01 07:05:61
  TRACK 368 AUDIO
    TITLE "19:cjc024_0784"
    INDEX 01 07:06:12
  TRACK 369 AUDIO
    TITLE "0:"
    INDEX 01 07:08:28
  TRACK 370 AUDIO
    TITLE "18:cjc024_0785"
    INDEX 01 07:09:28
  TRACK 371 AUDIO
    TITLE "0:"
    INDEX 01 07:10:35
  TRACK 372 AUDIO
    TITLE "19:cjc024_0786"
    INDEX 01 07:10:60
  TRACK 373 AUDIO
    TITLE "0:"
    INDEX 01 07:13:10
  TRACK 374 AUDIO
    TITLE "18:cjc024_0787"
    INDEX 01 07:14:11
  TRACK 375 AUDIO
    TITLE "0:"
    INDEX 01 07:15:34
  TRACK 376 AUDIO
    TITLE "19:cjc024_0788"
    INDEX 01 07:15:60
  TRACK 377 AUDIO
    TITLE "0:"
    INDEX 01 07:18:15
  TRACK 378 AUDIO
    TITLE "18:cjc024_0789"
    INDEX 01 07:19:16
  TRACK 379 AUDIO
    TITLE "0:"
    INDEX 01 07:20:25
  TRACK 380 AUDIO
    TITLE "19:cjc024_0790"
    INDEX 01 07:20:51
  TRACK 381 AUDIO
    TITLE "0:"
    INDEX 01 07:22:42
  TRACK 382 AUDIO
    TITLE "18:cjc024_0791"
    INDEX 01 07:23:41
  TRACK 383 AUDIO
    TITLE "0:"
    INDEX 01 07:24:53
  TRACK 384 AUDIO
    TITLE "19:cjc024_0792"
    INDEX 01 07:25:03
  TRACK 385 AUDIO
    TITLE "0:"
    INDEX 01 07:26:54
  TRACK 386 AUDIO
    TITLE "18:cjc024_0793"
    INDEX 01 07:27:53
  TRACK 387 AUDIO
    TITLE "0:"
    INDEX 01 07:28:58
  TRACK 388 AUDIO
    TITLE "19:cjc024_0794"
    INDEX 01 07:29:11
  TRACK 389 AUDIO
    TITLE "0:"
    INDEX 01 07:31:14
  TRACK 390 AUDIO
    TITLE "18:cjc024_0795"
    INDEX 01 07:32:13
  TRACK 391 AUDIO
    TITLE "0:"
    INDEX 01 07:33:18
  TRACK 392 AUDIO
    TITLE "19:cjc024_0796"
    INDEX 01 07:33:44
  TRACK 393 AUDIO
    TITLE "0:"
    INDEX 01 07:35:09
  TRACK 394 AUDIO
    TITLE "18:cjc024_0797"
    INDEX 01 07:36:11
  TRACK 395 AUDIO
    TITLE "0:"
    INDEX 01 07:37:12
  TRACK 396 AUDIO
    TITLE "19:cjc024_0798"
    INDEX 01 07:37:36
  TRACK 397 AUDIO
    TITLE "0:"
    INDEX 01 07:39:11
  TRACK 398 AUDIO
    TITLE "18:cjc024_0799"
    INDEX 01 07:40:11
  TRACK 399 AUDIO
    TITLE "0:"
    INDEX 01 07:41:24
  TRACK 400 AUDIO
    TITLE "19:cjc024_0800"
    INDEX 01 07:41:49
  TRACK 401 AUDIO
    TITLE "0:"
    INDEX 01 07:43:23
